<svg width="2500" height="1664" viewBox="0 0 2500 1664" fill="none" xmlns="http://www.w3.org/2000/svg">
<path d="M1868.05 1292.62H629.958C595.178 1292.62 566.882 1264.33 566.882 1229.55V406.677C566.882 371.897 595.177 343.601 629.958 343.601H1868.05C1902.82 343.601 1931.12 371.896 1931.12 406.677V1229.55C1931.12 1264.33 1902.83 1292.62 1868.05 1292.62ZM629.958 346.601C596.832 346.601 569.882 373.551 569.882 406.677V1229.55C569.882 1262.67 596.832 1289.62 629.958 1289.62H1868.05C1901.17 1289.62 1928.12 1262.67 1928.12 1229.55V406.677C1928.12 373.551 1901.17 346.601 1868.05 346.601H629.958ZM1856.52 1225.29H634.75C618.985 1225.29 606.16 1212.47 606.16 1196.7V417.08C606.16 401.315 618.986 388.49 634.75 388.49H1856.52C1872.29 388.49 1885.11 401.316 1885.11 417.08V1196.7C1885.11 1212.47 1872.29 1225.29 1856.52 1225.29L1856.52 1225.29ZM634.75 391.489C620.64 391.489 609.16 402.969 609.16 417.079V1196.7C609.16 1210.81 620.64 1222.29 634.75 1222.29H1856.52C1870.63 1222.29 1882.11 1210.81 1882.11 1196.7V417.08C1882.11 402.97 1870.63 391.49 1856.52 391.49L634.75 391.489Z" fill="#3F3F46"/>
<path d="M1856.52 389.989H634.75C619.789 389.989 607.66 402.118 607.66 417.079V1196.7C607.66 1211.66 619.789 1223.79 634.75 1223.79H1856.52C1871.48 1223.79 1883.61 1211.66 1883.61 1196.7V417.079C1883.61 402.118 1871.48 389.989 1856.52 389.989Z" fill="white"/>
<path d="M1856.52 1225.29H634.75C618.985 1225.29 606.16 1212.46 606.16 1196.7V417.08C606.16 401.315 618.986 388.49 634.75 388.49H1856.52C1872.29 388.49 1885.11 401.316 1885.11 417.08V1196.7C1885.11 1212.47 1872.29 1225.29 1856.52 1225.29L1856.52 1225.29ZM634.75 391.489C620.64 391.489 609.16 402.968 609.16 417.079V1196.7C609.16 1210.81 620.64 1222.29 634.75 1222.29H1856.52C1870.63 1222.29 1882.11 1210.81 1882.11 1196.7V417.08C1882.11 402.969 1870.63 391.49 1856.52 391.49L634.75 391.489Z" fill="#3F3F46"/>
<path d="M2030.12 1260.21H495.276C494.448 1260.21 493.776 1259.54 493.776 1258.71C493.776 1257.88 494.448 1257.21 495.276 1257.21H2030.12C2030.94 1257.21 2031.62 1257.88 2031.62 1258.71C2031.62 1259.54 2030.94 1260.21 2030.12 1260.21Z" fill="#3F3F46"/>
<path d="M435.74 1258.71H2065.84V1285.93C2065.84 1306.39 2049.23 1323 2028.77 1323H472.812C452.352 1323 435.74 1306.39 435.74 1285.93V1258.71Z" fill="white"/>
<path d="M2028.77 1324.5H472.811C451.543 1324.5 434.239 1307.2 434.239 1285.93V1258.71C434.239 1257.88 434.91 1257.21 435.739 1257.21H2065.84C2066.66 1257.21 2067.34 1257.88 2067.34 1258.71V1285.93C2067.34 1307.2 2050.03 1324.5 2028.77 1324.5ZM437.24 1260.21V1285.93C437.24 1305.54 453.198 1321.5 472.812 1321.5H2028.77C2048.38 1321.5 2064.34 1305.54 2064.34 1285.93V1260.21H437.24Z" fill="#3F3F46"/>
<path d="M1435.04 312C1478.7 312 1514.09 347.394 1514.09 391.055V578.826C1514.09 604.345 1525.12 628.712 1544.57 645.228C1544.71 645.342 1544.84 645.455 1544.98 645.569C1565.41 662.794 1586.07 671.203 1599.54 675.425H1285.54V312H1435.04Z" fill="white"/>
<path d="M1599.54 676.925H1285.54C1284.71 676.925 1284.04 676.254 1284.04 675.425V312C1284.04 311.171 1284.71 310.5 1285.54 310.5H1435.04C1479.45 310.5 1515.59 346.637 1515.59 391.055V578.826C1515.59 604.136 1526.51 627.922 1545.55 644.084L1545.95 644.422C1561.77 657.763 1579.95 667.713 1599.99 673.993C1600.7 674.214 1601.14 674.919 1601.02 675.651C1600.91 676.383 1600.28 676.925 1599.54 676.925ZM1287.04 673.925H1590.56C1573.49 667.526 1557.86 658.397 1544.01 646.716L1543.6 646.371C1523.89 629.639 1512.59 605.02 1512.59 578.827V391.056C1512.59 348.292 1477.8 313.501 1435.04 313.501H1287.03V673.926L1287.04 673.925Z" fill="#3F3F46"/>
<path d="M1215.53 715.576L1747.79 715.576V671.306L1215.53 671.306V715.576Z" fill="white"/>
<path d="M1747.8 717.077H1215.53C1214.7 717.077 1214.03 716.406 1214.03 715.577V671.307C1214.03 670.478 1214.7 669.807 1215.53 669.807H1747.8C1748.62 669.807 1749.3 670.478 1749.3 671.307V715.577C1749.3 716.406 1748.62 717.077 1747.8 717.077ZM1217.03 714.077H1746.3V672.807H1217.03V714.077Z" fill="#3F3F46"/>
<path d="M1413.2 312H895.522C851.738 312 816.243 353.381 816.243 404.428V1186.07L1225.99 1323H1268.45C1309.86 1323 1343.44 1283.86 1343.44 1235.58V404.854C1343.44 381.801 1351.16 359.592 1365.15 343.302C1365.27 343.163 1365.39 343.024 1365.51 342.885C1383.51 322.137 1403.6 314.743 1413.2 311.999V312Z" fill="white"/>
<path d="M1268.45 1324.5H1225.99C1225.83 1324.5 1225.67 1324.47 1225.51 1324.42L815.767 1187.49C815.155 1187.29 814.743 1186.72 814.743 1186.07V404.428C814.743 352.636 850.98 310.5 895.522 310.5H1413.2C1413.95 310.5 1414.58 311.051 1414.68 311.792C1414.79 312.533 1414.33 313.237 1413.61 313.442C1401.13 317.007 1382.86 325.179 1366.64 343.868L1366.29 344.279C1352.72 360.079 1344.94 382.157 1344.94 404.854V1235.58C1344.94 1284.61 1310.62 1324.5 1268.45 1324.5ZM1226.23 1321.5H1268.45C1308.97 1321.5 1341.93 1282.96 1341.93 1235.58V404.855C1341.93 381.453 1349.98 358.662 1364.01 342.325L1364.38 341.901C1377.63 326.635 1392.22 318.179 1404.11 313.5H895.521C852.634 313.5 817.742 354.29 817.742 404.428V1184.99L1226.23 1321.5L1226.23 1321.5Z" fill="#3F3F46"/>
<path d="M671.42 1187.1V1237.51C671.42 1284.72 704.252 1323 744.75 1323H1227.75V1319.94C1196.69 1310.01 1173.89 1276.87 1173.89 1237.51V1187.1H671.42V1187.1Z" fill="white"/>
<path d="M1227.75 1324.5H744.75C703.489 1324.5 669.92 1285.48 669.92 1237.51V1187.1C669.92 1186.27 670.591 1185.6 671.42 1185.6H1173.89C1174.71 1185.6 1175.39 1186.27 1175.39 1187.1V1237.51C1175.39 1275.25 1197.11 1308.56 1228.21 1318.51C1228.83 1318.71 1229.25 1319.29 1229.25 1319.94V1323C1229.25 1323.83 1228.58 1324.5 1227.75 1324.5ZM672.92 1188.6V1237.51C672.92 1283.82 705.143 1321.5 744.75 1321.5H1226.25V1321.03C1194.48 1310.28 1172.39 1276.12 1172.39 1237.51V1188.6H672.92V1188.6Z" fill="#3F3F46"/>
<path d="M1013.44 672.045H924.257C923.428 672.045 922.757 671.374 922.757 670.545V631.391C922.757 630.562 923.428 629.891 924.257 629.891H1013.44C1014.27 629.891 1014.94 630.562 1014.94 631.391V670.545C1014.94 671.374 1014.27 672.045 1013.44 672.045ZM925.757 669.045H1011.94V632.891H925.757V669.045Z" fill="#3F3F46"/>
<path d="M954.039 662.191L957.025 657.899C959.733 659.958 962.487 661.316 965.611 661.316C969.383 661.316 971.189 659.575 971.189 656.629C971.189 649.402 955.474 650.399 955.474 640.139C955.474 634.204 959.93 630.306 966.653 630.306C971.421 630.306 974.499 632.189 977.033 634.73L973.619 638.387C971.49 636.504 969.719 635.452 966.953 635.452C963.794 635.452 961.908 637.029 961.908 639.832C961.908 646.402 977.623 645.088 977.623 656.191C977.623 662.257 973.226 666.462 965.611 666.462C961.723 666.462 957.048 664.798 954.039 662.191ZM964.06 624.94H968.643V632.408H964.06V624.94ZM964.06 664.009H968.643V671.827H964.06V664.009Z" fill="#0C0C0D"/>
<path d="M1136.34 638.204H1086.31C1085.48 638.204 1084.81 637.533 1084.81 636.704C1084.81 635.875 1085.48 635.204 1086.31 635.204H1136.34C1137.17 635.204 1137.84 635.875 1137.84 636.704C1137.84 637.533 1137.17 638.204 1136.34 638.204Z" fill="#3F3F46"/>
<path d="M1190.72 664.851H1086.86C1086.03 664.851 1085.36 664.18 1085.36 663.351C1085.36 662.522 1086.03 661.851 1086.86 661.851H1190.72C1191.55 661.851 1192.22 662.522 1192.22 663.351C1192.22 664.18 1191.55 664.851 1190.72 664.851Z" fill="#3F3F46"/>
<path d="M1013.44 767.756H924.257C923.428 767.756 922.757 767.085 922.757 766.256V727.101C922.757 726.272 923.428 725.601 924.257 725.601H1013.44C1014.27 725.601 1014.94 726.272 1014.94 727.101V766.256C1014.94 767.085 1014.27 767.756 1013.44 767.756ZM925.757 764.756H1011.94V728.601H925.757V764.756Z" fill="#3F3F46"/>
<path d="M954.039 757.902L957.025 753.61C959.733 755.669 962.487 757.026 965.611 757.026C969.383 757.026 971.189 755.285 971.189 752.339C971.189 745.112 955.474 746.109 955.474 735.849C955.474 729.914 959.93 726.016 966.653 726.016C971.421 726.016 974.499 727.899 977.033 730.44L973.619 734.097C971.49 732.214 969.719 731.162 966.953 731.162C963.794 731.162 961.908 732.739 961.908 735.542C961.908 742.112 977.623 740.798 977.623 751.901C977.623 757.967 973.226 762.172 965.611 762.172C961.723 762.172 957.048 760.508 954.039 757.902ZM964.06 720.651H968.643V728.119H964.06V720.651ZM964.06 759.72H968.643V767.538H964.06V759.72Z" fill="#0C0C0D"/>
<path d="M1190.3 733.915H1086.31C1085.48 733.915 1084.81 733.244 1084.81 732.415C1084.81 731.586 1085.48 730.915 1086.31 730.915H1190.3C1191.13 730.915 1191.8 731.586 1191.8 732.415C1191.8 733.244 1191.13 733.915 1190.3 733.915Z" fill="#3F3F46"/>
<path d="M1190.72 760.561H1086.86C1086.03 760.561 1085.36 759.89 1085.36 759.061C1085.36 758.232 1086.03 757.561 1086.86 757.561H1190.72C1191.55 757.561 1192.22 758.232 1192.22 759.061C1192.22 759.89 1191.55 760.561 1190.72 760.561Z" fill="#3F3F46"/>
<path d="M1013.44 863.467H924.257C923.428 863.467 922.757 862.795 922.757 861.967V822.813C922.757 821.984 923.428 821.313 924.257 821.313H1013.44C1014.27 821.313 1014.94 821.984 1014.94 822.813V861.967C1014.94 862.795 1014.27 863.467 1013.44 863.467ZM925.757 860.467H1011.94V824.313H925.757V860.467Z" fill="#3F3F46"/>
<path d="M954.039 853.613L957.025 849.321C959.733 851.379 962.487 852.737 965.611 852.737C969.383 852.737 971.189 850.996 971.189 848.051C971.189 840.824 955.474 841.82 955.474 831.561C955.474 825.626 959.93 821.728 966.653 821.728C971.421 821.728 974.499 823.611 977.033 826.152L973.619 829.809C971.49 827.926 969.719 826.874 966.953 826.874C963.794 826.874 961.908 828.451 961.908 831.254C961.908 837.823 977.623 836.51 977.623 847.612C977.623 853.678 973.226 857.883 965.611 857.883C961.723 857.883 957.048 856.218 954.039 853.613ZM964.06 816.362H968.643V823.83H964.06V816.362ZM964.06 855.431H968.643V863.249H964.06V855.431Z" fill="#0C0C0D"/>
<path d="M1194.42 829.626H1086.31C1085.48 829.626 1084.81 828.955 1084.81 828.126C1084.81 827.297 1085.48 826.626 1086.31 826.626H1194.42C1195.25 826.626 1195.92 827.297 1195.92 828.126C1195.92 828.955 1195.25 829.626 1194.42 829.626Z" fill="#3F3F46"/>
<path d="M1165.6 856.272H1086.86C1086.03 856.272 1085.36 855.6 1085.36 854.772C1085.36 853.944 1086.03 853.272 1086.86 853.272H1165.6C1166.42 853.272 1167.1 853.944 1167.1 854.772C1167.1 855.6 1166.42 856.272 1165.6 856.272Z" fill="#3F3F46"/>
<path d="M1013.44 959.178H924.257C923.428 959.178 922.757 958.506 922.757 957.678V918.524C922.757 917.696 923.428 917.024 924.257 917.024H1013.44C1014.27 917.024 1014.94 917.696 1014.94 918.524V957.678C1014.94 958.506 1014.27 959.178 1013.44 959.178ZM925.757 956.178H1011.94V920.024H925.757V956.178Z" fill="#3F3F46"/>
<path d="M954.039 949.324L957.025 945.032C959.733 947.09 962.487 948.448 965.611 948.448C969.383 948.448 971.189 946.707 971.189 943.761C971.189 936.535 955.474 937.531 955.474 927.271C955.474 921.336 959.93 917.438 966.653 917.438C971.421 917.438 974.499 919.322 977.033 921.862L973.619 925.519C971.49 923.635 969.719 922.584 966.953 922.584C963.794 922.584 961.908 924.161 961.908 926.964C961.908 933.533 977.623 932.22 977.623 943.322C977.623 949.388 973.226 953.593 965.611 953.593C961.723 953.593 957.048 951.928 954.039 949.322V949.324ZM964.06 912.073H968.643V919.541H964.06V912.073ZM964.06 951.142H968.643V958.96H964.06V951.142Z" fill="#0C0C0D"/>
<path d="M1159.42 925.336H1086.31C1085.48 925.336 1084.81 924.664 1084.81 923.836C1084.81 923.008 1085.48 922.336 1086.31 922.336H1159.42C1160.25 922.336 1160.92 923.008 1160.92 923.836C1160.92 924.664 1160.25 925.336 1159.42 925.336Z" fill="#3F3F46"/>
<path d="M1127.5 951.982H1086.86C1086.03 951.982 1085.36 951.31 1085.36 950.482C1085.36 949.654 1086.03 948.982 1086.86 948.982H1127.5C1128.33 948.982 1129 949.654 1129 950.482C1129 951.31 1128.33 951.982 1127.5 951.982Z" fill="#3F3F46"/>
<path d="M1013.44 1054.89H924.257C923.428 1054.89 922.757 1054.22 922.757 1053.39V1014.23C922.757 1013.41 923.428 1012.73 924.257 1012.73H1013.44C1014.27 1012.73 1014.94 1013.41 1014.94 1014.23V1053.39C1014.94 1054.22 1014.27 1054.89 1013.44 1054.89ZM925.757 1051.89H1011.94V1015.73H925.757V1051.89Z" fill="#3F3F46"/>
<path d="M954.039 1045.03L957.025 1040.74C959.733 1042.8 962.487 1044.16 965.611 1044.16C969.383 1044.16 971.189 1042.42 971.189 1039.47C971.189 1032.24 955.474 1033.24 955.474 1022.98C955.474 1017.05 959.93 1013.15 966.653 1013.15C971.421 1013.15 974.499 1015.03 977.033 1017.57L973.619 1021.23C971.49 1019.35 969.719 1018.29 966.953 1018.29C963.794 1018.29 961.908 1019.87 961.908 1022.67C961.908 1029.24 977.623 1027.93 977.623 1039.03C977.623 1045.1 973.226 1049.3 965.611 1049.3C961.723 1049.3 957.048 1047.64 954.039 1045.03ZM964.06 1007.78H968.643V1015.25H964.06V1007.78ZM964.06 1046.85H968.643V1054.67H964.06V1046.85Z" fill="#0C0C0D"/>
<path d="M1262.51 1080.87H893.804C892.975 1080.87 892.304 1080.19 892.304 1079.37V602.988C892.304 602.159 892.975 601.488 893.804 601.488H1262.51C1263.34 601.488 1264.01 602.159 1264.01 602.988V1079.37C1264.01 1080.19 1263.34 1080.87 1262.51 1080.87ZM895.304 1077.87H1261.01V604.488H895.304V1077.87Z" fill="#3F3F46"/>
<path d="M1043.9 1080.87C1043.07 1080.87 1042.4 1080.19 1042.4 1079.37V602.988C1042.4 602.159 1043.07 601.488 1043.9 601.488C1044.73 601.488 1045.4 602.159 1045.4 602.988V1079.37C1045.4 1080.19 1044.73 1080.87 1043.9 1080.87Z" fill="#3F3F46"/>
<path d="M1192 394.589H893.71V539.598H1192V394.589Z" fill="#0C0C0D"/>
<path d="M916.753 424.425H945.606C964.143 424.425 977.769 429.801 977.769 445.46C977.769 453.497 973.135 461.326 965.246 463.936V464.458C975.231 466.598 982.57 473.174 982.57 484.709C982.57 501.777 967.783 509.762 947.923 509.762H916.753V424.425ZM944.172 459.657C956.75 459.657 962.101 455.011 962.101 447.6C962.101 439.353 956.199 436.221 944.502 436.221H932.752V459.657H944.172ZM946.269 497.967C959.51 497.967 966.903 493.479 966.903 483.875C966.903 474.898 959.73 470.983 946.269 470.983H932.753V497.968L946.269 497.967Z" fill="white"/>
<path d="M1001.85 424.425H1017.85V509.763H1001.85V424.425Z" fill="white"/>
<path d="M1043.5 424.425H1059.5V497.028H1096.96V509.763H1043.5V424.425Z" fill="white"/>
<path d="M1115.5 424.425H1131.5V497.028H1168.96V509.763H1115.5V424.425Z" fill="white"/>
<path d="M1262.51 696.392H893.804C892.975 696.392 892.304 695.721 892.304 694.892C892.304 694.063 892.975 693.392 893.804 693.392H1262.51C1263.34 693.392 1264.01 694.063 1264.01 694.892C1264.01 695.721 1263.34 696.392 1262.51 696.392Z" fill="#3F3F46"/>
<path d="M1262.51 796.453H893.804C892.975 796.453 892.304 795.782 892.304 794.953C892.304 794.124 892.975 793.453 893.804 793.453H1262.51C1263.34 793.453 1264.01 794.124 1264.01 794.953C1264.01 795.782 1263.34 796.453 1262.51 796.453Z" fill="#3F3F46"/>
<path d="M1262.51 896.515H893.804C892.975 896.515 892.304 895.843 892.304 895.015C892.304 894.187 892.975 893.515 893.804 893.515H1262.51C1263.34 893.515 1264.01 894.187 1264.01 895.015C1264.01 895.843 1263.34 896.515 1262.51 896.515Z" fill="#3F3F46"/>
<path d="M1262.51 996.575H893.804C892.975 996.575 892.304 995.903 892.304 995.075C892.304 994.247 892.975 993.575 893.804 993.575H1262.51C1263.34 993.575 1264.01 994.247 1264.01 995.075C1264.01 995.903 1263.34 996.575 1262.51 996.575Z" fill="#3F3F46"/>
<path d="M1191.33 1022.11H1086.31C1085.48 1022.11 1084.81 1021.44 1084.81 1020.61C1084.81 1019.78 1085.48 1019.11 1086.31 1019.11H1191.33C1192.16 1019.11 1192.83 1019.78 1192.83 1020.61C1192.83 1021.44 1192.16 1022.11 1191.33 1022.11Z" fill="#3F3F46"/>
<path d="M1127.5 1048.76H1086.86C1086.03 1048.76 1085.36 1048.09 1085.36 1047.26C1085.36 1046.43 1086.03 1045.76 1086.86 1045.76H1127.5C1128.33 1045.76 1129 1046.43 1129 1047.26C1129 1048.09 1128.33 1048.76 1127.5 1048.76Z" fill="#3F3F46"/>
<path d="M607.331 912.664C672.923 912.664 726.096 859.491 726.096 793.899C726.096 728.307 672.923 675.134 607.331 675.134C541.739 675.134 488.566 728.307 488.566 793.899C488.566 859.491 541.739 912.664 607.331 912.664Z" fill="white"/>
<path d="M607.331 914.163C541.017 914.163 487.066 860.213 487.066 793.899C487.066 727.585 541.017 673.634 607.331 673.634C673.645 673.634 727.596 727.585 727.596 793.899C727.596 860.213 673.645 914.163 607.331 914.163ZM607.331 676.634C542.671 676.634 490.066 729.239 490.066 793.899C490.066 858.559 542.671 911.163 607.331 911.163C671.991 911.163 724.596 858.559 724.596 793.899C724.596 729.239 671.992 676.634 607.331 676.634Z" fill="#3F3F46"/>
<path d="M598.117 833.33C596.452 833.33 594.835 832.736 593.561 831.645L550.56 794.787C547.625 792.271 547.285 787.852 549.801 784.916C552.316 781.981 556.736 781.64 559.672 784.157L597.319 816.426L670.581 729.669C673.075 726.715 677.493 726.342 680.445 728.837C683.399 731.331 683.771 735.748 681.277 738.701L603.465 830.846C602.261 832.271 600.539 833.157 598.679 833.307C598.491 833.322 598.304 833.329 598.117 833.329V833.33Z" fill="#0C0C0D"/>
<path d="M1731.92 954.423H1428.05V1015.48H1731.92V954.423Z" fill="#0C0C0D"/>
<path d="M1767.42 1015.93H1455.03V1076.98H1767.42V1015.93Z" fill="#0C0C0D"/>
<path d="M1767.42 1077.27H1455.03V1138.33H1767.42V1077.27Z" fill="#0C0C0D"/>
<path d="M1777.36 1138.94H1464.97V1199.99H1777.36V1138.94Z" fill="#0C0C0D"/>
<path d="M1763.16 1200.44H1430.84V1261.5H1763.16V1200.44Z" fill="#0C0C0D"/>
<path d="M1784.46 1261.94H1472.07V1323H1784.46V1261.94Z" fill="#0C0C0D"/>
<path d="M1890 1261.94H1632.34V1323H1890V1261.94Z" fill="#0C0C0D"/>
<path d="M1545.47 1077.65C1544.64 1077.65 1543.97 1076.98 1543.97 1076.15V1033.79C1543.97 1032.96 1544.64 1032.29 1545.47 1032.29C1546.29 1032.29 1546.97 1032.96 1546.97 1033.79V1076.15C1546.97 1076.98 1546.29 1077.65 1545.47 1077.65Z" fill="white"/>
<path d="M1577.6 1077.65C1576.77 1077.65 1576.1 1076.98 1576.1 1076.15V1033.79C1576.1 1032.96 1576.77 1032.29 1577.6 1032.29C1578.43 1032.29 1579.1 1032.96 1579.1 1033.79V1076.15C1579.1 1076.98 1578.43 1077.65 1577.6 1077.65Z" fill="white"/>
<path d="M1674.98 1077.65C1674.15 1077.65 1673.48 1076.98 1673.48 1076.15V1033.79C1673.48 1032.96 1674.15 1032.29 1674.98 1032.29C1675.81 1032.29 1676.48 1032.96 1676.48 1033.79V1076.15C1676.48 1076.98 1675.81 1077.65 1674.98 1077.65Z" fill="white"/>
<path d="M1523.07 1015.32C1522.24 1015.32 1521.57 1014.65 1521.57 1013.82V971.465C1521.57 970.637 1522.24 969.965 1523.07 969.965C1523.9 969.965 1524.57 970.637 1524.57 971.465V1013.82C1524.57 1014.65 1523.9 1015.32 1523.07 1015.32Z" fill="white"/>
<path d="M1545.47 1015.32C1544.64 1015.32 1543.97 1014.65 1543.97 1013.82V971.465C1543.97 970.637 1544.64 969.965 1545.47 969.965C1546.29 969.965 1546.97 970.637 1546.97 971.465V1013.82C1546.97 1014.65 1546.29 1015.32 1545.47 1015.32Z" fill="white"/>
<path d="M1605.84 1015.32C1605.01 1015.32 1604.34 1014.65 1604.34 1013.82V971.465C1604.34 970.637 1605.01 969.965 1605.84 969.965C1606.67 969.965 1607.34 970.637 1607.34 971.465V1013.82C1607.34 1014.65 1606.67 1015.32 1605.84 1015.32Z" fill="white"/>
<path d="M1523.07 1139.97C1522.24 1139.97 1521.57 1139.3 1521.57 1138.47V1096.11C1521.57 1095.28 1522.24 1094.61 1523.07 1094.61C1523.9 1094.61 1524.57 1095.28 1524.57 1096.11V1138.47C1524.57 1139.3 1523.9 1139.97 1523.07 1139.97Z" fill="white"/>
<path d="M1545.47 1139.97C1544.64 1139.97 1543.97 1139.3 1543.97 1138.47V1096.11C1543.97 1095.28 1544.64 1094.61 1545.47 1094.61C1546.29 1094.61 1546.97 1095.28 1546.97 1096.11V1138.47C1546.97 1139.3 1546.29 1139.97 1545.47 1139.97Z" fill="white"/>
<path d="M1605.84 1139.97C1605.01 1139.97 1604.34 1139.3 1604.34 1138.47V1096.11C1604.34 1095.28 1605.01 1094.61 1605.84 1094.61C1606.67 1094.61 1607.34 1095.28 1607.34 1096.11V1138.47C1607.34 1139.3 1606.67 1139.97 1605.84 1139.97Z" fill="white"/>
<path d="M1743.14 1324.5C1742.32 1324.5 1741.64 1323.83 1741.64 1323V1280.64C1741.64 1279.81 1742.32 1279.14 1743.14 1279.14C1743.97 1279.14 1744.64 1279.81 1744.64 1280.64V1323C1744.64 1323.83 1743.97 1324.5 1743.14 1324.5Z" fill="white"/>
<path d="M1765.54 1324.5C1764.71 1324.5 1764.04 1323.83 1764.04 1323V1280.64C1764.04 1279.81 1764.71 1279.14 1765.54 1279.14C1766.37 1279.14 1767.04 1279.81 1767.04 1280.64V1323C1767.04 1323.83 1766.37 1324.5 1765.54 1324.5Z" fill="white"/>
<path d="M1825.92 1324.5C1825.09 1324.5 1824.42 1323.83 1824.42 1323V1280.64C1824.42 1279.81 1825.09 1279.14 1825.92 1279.14C1826.74 1279.14 1827.42 1279.81 1827.42 1280.64V1323C1827.42 1323.83 1826.74 1324.5 1825.92 1324.5Z" fill="white"/>
<path d="M1577.6 1324.5C1576.77 1324.5 1576.1 1323.83 1576.1 1323V1280.64C1576.1 1279.81 1576.77 1279.14 1577.6 1279.14C1578.43 1279.14 1579.1 1279.81 1579.1 1280.64V1323C1579.1 1323.83 1578.43 1324.5 1577.6 1324.5Z" fill="white"/>
<path d="M1600 1324.5C1599.17 1324.5 1598.5 1323.83 1598.5 1323V1280.64C1598.5 1279.81 1599.17 1279.14 1600 1279.14C1600.83 1279.14 1601.5 1279.81 1601.5 1280.64V1323C1601.5 1323.83 1600.83 1324.5 1600 1324.5Z" fill="white"/>
<path d="M1660.37 1324.5C1659.54 1324.5 1658.87 1323.83 1658.87 1323V1280.64C1658.87 1279.81 1659.54 1279.14 1660.37 1279.14C1661.2 1279.14 1661.87 1279.81 1661.87 1280.64V1323C1661.87 1323.83 1661.2 1324.5 1660.37 1324.5Z" fill="white"/>
<path d="M1640.9 1201.32C1640.07 1201.32 1639.4 1200.64 1639.4 1199.82V1157.46C1639.4 1156.63 1640.07 1155.96 1640.9 1155.96C1641.72 1155.96 1642.4 1156.63 1642.4 1157.46V1199.82C1642.4 1200.64 1641.72 1201.32 1640.9 1201.32Z" fill="white"/>
<path d="M1663.29 1201.32C1662.47 1201.32 1661.79 1200.64 1661.79 1199.82V1157.46C1661.79 1156.63 1662.47 1155.96 1663.29 1155.96C1664.12 1155.96 1664.79 1156.63 1664.79 1157.46V1199.82C1664.79 1200.64 1664.12 1201.32 1663.29 1201.32Z" fill="white"/>
<path d="M1723.67 1201.32C1722.84 1201.32 1722.17 1200.64 1722.17 1199.82V1157.46C1722.17 1156.63 1722.84 1155.96 1723.67 1155.96C1724.5 1155.96 1725.17 1156.63 1725.17 1157.46V1199.82C1725.17 1200.64 1724.5 1201.32 1723.67 1201.32Z" fill="white"/>
<path d="M1542.54 1201.32C1541.72 1201.32 1541.04 1200.64 1541.04 1199.82V1157.46C1541.04 1156.63 1541.72 1155.96 1542.54 1155.96C1543.37 1155.96 1544.04 1156.63 1544.04 1157.46V1199.82C1544.04 1200.64 1543.37 1201.32 1542.54 1201.32Z" fill="white"/>
<path d="M1564.94 1201.32C1564.11 1201.32 1563.44 1200.64 1563.44 1199.82V1157.46C1563.44 1156.63 1564.11 1155.96 1564.94 1155.96C1565.77 1155.96 1566.44 1156.63 1566.44 1157.46V1199.82C1566.44 1200.64 1565.77 1201.32 1564.94 1201.32Z" fill="white"/>
<path d="M1625.32 1201.32C1624.49 1201.32 1623.82 1200.64 1623.82 1199.82V1157.46C1623.82 1156.63 1624.49 1155.96 1625.32 1155.96C1626.14 1155.96 1626.82 1156.63 1626.82 1157.46V1199.82C1626.82 1200.64 1626.14 1201.32 1625.32 1201.32Z" fill="white"/>
<path d="M1671.42 1261.69C1670.6 1261.69 1669.92 1261.02 1669.92 1260.19V1217.83C1669.92 1217 1670.6 1216.33 1671.42 1216.33C1672.25 1216.33 1672.92 1217 1672.92 1217.83V1260.19C1672.92 1261.02 1672.25 1261.69 1671.42 1261.69Z" fill="white"/>
<path d="M1695.25 1261.69C1694.42 1261.69 1693.75 1261.02 1693.75 1260.19V1217.83C1693.75 1217 1694.42 1216.33 1695.25 1216.33C1696.08 1216.33 1696.75 1217 1696.75 1217.83V1260.19C1696.75 1261.02 1696.08 1261.69 1695.25 1261.69Z" fill="white"/>
<path d="M1623.77 1261.69C1622.95 1261.69 1622.27 1261.02 1622.27 1260.19V1217.83C1622.27 1217 1622.95 1216.33 1623.77 1216.33C1624.6 1216.33 1625.27 1217 1625.27 1217.83V1260.19C1625.27 1261.02 1624.6 1261.69 1623.77 1261.69Z" fill="white"/>
<path d="M1647.6 1261.69C1646.77 1261.69 1646.1 1261.02 1646.1 1260.19V1217.83C1646.1 1217 1646.77 1216.33 1647.6 1216.33C1648.43 1216.33 1649.1 1217 1649.1 1217.83V1260.19C1649.1 1261.02 1648.43 1261.69 1647.6 1261.69Z" fill="white"/>
<path d="M1768.44 1079.66H1452.74C1451.91 1079.66 1451.24 1078.98 1451.24 1078.16C1451.24 1077.33 1451.91 1076.66 1452.74 1076.66H1768.44C1769.26 1076.66 1769.94 1077.33 1769.94 1078.16C1769.94 1078.98 1769.26 1079.66 1768.44 1079.66Z" fill="white"/>
<path d="M1778.47 1140.44H1453.65C1452.83 1140.44 1452.15 1139.76 1452.15 1138.94C1452.15 1138.11 1452.83 1137.44 1453.65 1137.44H1778.47C1779.3 1137.44 1779.97 1138.11 1779.97 1138.94C1779.97 1139.76 1779.3 1140.44 1778.47 1140.44Z" fill="white"/>
<path d="M1778.47 1201.94H1427.68C1426.85 1201.94 1426.18 1201.27 1426.18 1200.44C1426.18 1199.61 1426.85 1198.94 1427.68 1198.94H1778.47C1779.3 1198.94 1779.97 1199.61 1779.97 1200.44C1779.97 1201.27 1779.3 1201.94 1778.47 1201.94Z" fill="white"/>
<path d="M1893.43 1263.44H1427.68C1426.85 1263.44 1426.18 1262.77 1426.18 1261.94C1426.18 1261.11 1426.85 1260.44 1427.68 1260.44H1893.43C1894.26 1260.44 1894.93 1261.11 1894.93 1261.94C1894.93 1262.77 1894.26 1263.44 1893.43 1263.44Z" fill="white"/>
<path d="M1768.44 1016.7H1427.65C1426.82 1016.7 1426.15 1016.03 1426.15 1015.2C1426.15 1014.37 1426.82 1013.7 1427.65 1013.7H1768.44C1769.26 1013.7 1769.94 1014.37 1769.94 1015.2C1769.94 1016.03 1769.26 1016.7 1768.44 1016.7Z" fill="white"/>
<path d="M1698.79 700.317C1698.39 700.312 1698 700.308 1697.6 700.303C1677.26 700.136 1657.9 704.769 1640.64 713.119C1598.37 733.595 1568.66 776.434 1567.71 826.101C1566.3 898.54 1621.9 956.978 1693.73 958.843C1694.07 958.86 1694.42 958.863 1694.76 958.869C1706.78 959.089 1718.47 957.646 1729.58 954.734C1784.17 940.539 1825.22 891.395 1826.18 832.812C1827.38 760.034 1771.17 701.581 1698.79 700.317Z" fill="#0C0C0D"/>
<path d="M1697.11 940.593C1696.43 940.593 1695.75 940.586 1695.07 940.574L1694.86 940.57C1694.63 940.566 1694.38 940.561 1694.15 940.55C1632.31 938.944 1584.79 888.894 1586 826.607C1586.39 806.01 1592.62 785.986 1604 768.7C1615.07 751.897 1630.49 738.379 1648.6 729.605C1663.71 722.299 1679.85 718.597 1696.58 718.597C1696.89 718.597 1697.2 718.598 1697.51 718.601L1698.53 718.613H1698.54C1728.59 719.138 1756.42 731.16 1776.9 752.465C1797.38 773.769 1808.39 802.136 1807.89 832.344C1807.08 881.489 1772.98 924.535 1724.96 937.023C1715.92 939.393 1706.56 940.592 1697.11 940.592L1697.11 940.593ZM1696.58 721.598C1680.3 721.598 1664.61 725.199 1649.91 732.306C1613.11 750.134 1589.77 786.291 1589 826.665C1587.82 887.281 1634.06 935.988 1694.26 937.553C1694.5 937.564 1694.71 937.568 1694.91 937.571L1695.13 937.575C1704.99 937.767 1714.77 936.594 1724.21 934.121C1770.93 921.971 1804.1 880.099 1804.89 832.296C1805.9 771.295 1759.16 722.68 1698.49 721.614L1697.48 721.602C1697.18 721.6 1696.88 721.598 1696.58 721.598H1696.58Z" fill="white"/>
<path d="M1728.47 831.009C1751.36 845.566 1749.69 875.659 1725.63 888.311C1721.32 890.577 1716.55 892.527 1711.78 893.231C1707.09 893.928 1705.82 895.855 1706.1 900.113C1706.3 903.202 1705.98 906.325 1705.9 909.735C1698 909.529 1690.78 909.345 1683.69 909.157C1683.41 908.521 1683.05 908.123 1683.12 907.816C1685.89 895.77 1680.1 890.106 1668.92 887.488C1664.86 886.541 1661.24 883.538 1657.57 881.224C1655.25 879.772 1653.21 877.886 1651.23 876.324C1657.07 870.652 1662.71 865.189 1667.35 860.67C1676.17 864.318 1684.28 868.356 1692.83 870.899C1696.83 872.091 1701.96 871.203 1706.12 869.855C1716.27 866.541 1718.32 855.68 1709.46 849.898C1701.8 844.909 1692.72 842.134 1684.46 838.002C1676.55 834.035 1668.05 830.644 1661.3 825.148C1641.94 809.395 1646.57 780.202 1669.56 770.39C1673.67 768.633 1678.37 768.283 1682.59 766.724C1684.26 766.107 1686.29 764.128 1686.56 762.508C1687.21 758.459 1686.96 754.275 1687.08 749.459C1695.02 749.669 1702.09 749.849 1710.12 750.061C1710 754.281 1710.11 758.381 1709.73 762.415C1709.37 766.177 1710.66 767.625 1714.33 769.114C1723.37 772.803 1732.01 777.481 1741.71 782.202C1735.46 789.188 1730.37 794.879 1725.89 799.899C1717.16 796.267 1709 792.531 1700.56 789.556C1697.59 788.507 1693.92 788.987 1690.63 789.326C1685.05 789.885 1680.82 792.726 1679.47 798.422C1678.11 804.189 1680.92 808.735 1685.61 811.475C1691.17 814.731 1697.23 817.166 1703.15 819.794C1711.59 823.548 1720.78 826.113 1728.48 831.012L1728.47 831.009Z" fill="white"/>
<path d="M2171.98 1324.5H328.023C327.194 1324.5 326.523 1323.83 326.523 1323C326.523 1322.17 327.194 1321.5 328.023 1321.5H2171.98C2172.81 1321.5 2173.48 1322.17 2173.48 1323C2173.48 1323.83 2172.81 1324.5 2171.98 1324.5Z" fill="#3F3F46"/>
</svg>
